<?xml version="1.0" encoding="utf-8"?>
<!-- Generator: Adobe Illustrator 16.0.0, SVG Export Plug-In . SVG Version: 6.00 Build 0)  -->
<!DOCTYPE svg PUBLIC "-//W3C//DTD SVG 1.1//EN" "http://www.w3.org/Graphics/SVG/1.1/DTD/svg11.dtd">
<svg version="1.1" id="Layer_1" xmlns="http://www.w3.org/2000/svg" xmlns:xlink="http://www.w3.org/1999/xlink" x="0px" y="0px"
	 width="54px" height="30px" viewBox="0 0 54 30" enable-background="new 0 0 54 30" xml:space="preserve">
<g>
	<defs>
		<rect id="SVGID_1_" width="53.291" height="29.779"/>
	</defs>
	<clipPath id="SVGID_2_">
		<use xlink:href="#SVGID_1_"  overflow="visible"/>
	</clipPath>
	<path clip-path="url(#SVGID_2_)" fill="#A6A8AB" d="M13.475,17.665c0,2.677-2.17,4.847-4.847,4.847
		c-2.677,0-4.847-2.17-4.847-4.847s2.17-4.847,4.847-4.847C11.305,12.818,13.475,14.988,13.475,17.665"/>
	<path clip-path="url(#SVGID_2_)" fill="#A6A8AB" d="M0,29.779c0-3.585,3.863-6.491,8.628-6.491s8.628,2.906,8.628,6.491H0z"/>
	<path clip-path="url(#SVGID_2_)" fill="#231F20" d="M7.407,8.979V8.914C7.701,8.599,7.918,8.277,8.06,7.95
		c0.141-0.326,0.212-0.733,0.212-1.224c0-0.229-0.016-0.457-0.049-0.687h2.237V4.832H7.946C7.869,4.571,7.804,4.313,7.75,4.058
		C7.695,3.802,7.668,3.537,7.668,3.266c0-0.556,0.142-0.982,0.425-1.282c0.283-0.299,0.68-0.449,1.191-0.449
		c0.316,0,0.588,0.069,0.817,0.205c0.228,0.136,0.446,0.324,0.653,0.563l1.045-1.029c-0.327-0.392-0.705-0.702-1.135-0.93
		C10.234,0.114,9.72,0,9.121,0c-0.479,0-0.92,0.073-1.322,0.221C7.396,0.367,7.05,0.577,6.762,0.85
		C6.474,1.121,6.25,1.453,6.093,1.846C5.935,2.236,5.856,2.678,5.856,3.167c0,0.272,0.035,0.548,0.106,0.824
		C6.033,4.27,6.112,4.55,6.199,4.832H6.003L4.909,4.914V6.04h1.633C6.563,6.16,6.58,6.272,6.591,6.375
		c0.01,0.104,0.016,0.216,0.016,0.335c0,0.599-0.158,1.135-0.473,1.608C5.818,8.791,5.399,9.159,4.877,9.42v1.159h6.938v-1.6H7.407z
		"/>
	<path clip-path="url(#SVGID_2_)" fill="#58595B" d="M12.012,29.779c0-3.585,3.863-6.491,8.628-6.491
		c4.765,0,8.628,2.906,8.628,6.491H12.012z"/>
	<path clip-path="url(#SVGID_2_)" fill="#58595B" d="M25.487,17.665c0,2.677-2.17,4.847-4.847,4.847
		c-2.677,0-4.847-2.17-4.847-4.847s2.17-4.847,4.847-4.847C23.317,12.818,25.487,14.988,25.487,17.665"/>
	<path clip-path="url(#SVGID_2_)" fill="#231F20" d="M19.609,8.229V8.178c0.234-0.251,0.407-0.508,0.52-0.768
		c0.113-0.261,0.169-0.586,0.169-0.976c0-0.183-0.013-0.364-0.039-0.546h1.782V4.926h-2.003c-0.061-0.208-0.113-0.414-0.156-0.618
		c-0.043-0.203-0.065-0.413-0.065-0.63c0-0.443,0.113-0.783,0.338-1.021c0.226-0.239,0.542-0.358,0.95-0.358
		c0.251,0,0.468,0.055,0.65,0.163c0.182,0.108,0.356,0.259,0.52,0.448l0.833-0.819c-0.26-0.312-0.562-0.559-0.904-0.741
		c-0.343-0.183-0.753-0.273-1.229-0.273c-0.382,0-0.733,0.06-1.054,0.176c-0.321,0.117-0.596,0.284-0.826,0.501
		c-0.23,0.218-0.407,0.481-0.533,0.793c-0.126,0.313-0.189,0.663-0.189,1.055c0,0.216,0.028,0.435,0.085,0.655
		c0.056,0.223,0.119,0.445,0.189,0.671h-0.157L17.62,4.99v0.898h1.301c0.017,0.095,0.03,0.184,0.039,0.266
		c0.008,0.083,0.013,0.172,0.013,0.267c0,0.478-0.126,0.904-0.378,1.281c-0.251,0.377-0.585,0.67-1.001,0.878v0.924h5.528V8.229
		H19.609z"/>
	<path clip-path="url(#SVGID_2_)" fill="#929497" d="M37.499,17.665c0,2.677-2.17,4.847-4.847,4.847
		c-2.677,0-4.847-2.17-4.847-4.847s2.17-4.847,4.847-4.847C35.329,12.818,37.499,14.988,37.499,17.665"/>
	<path clip-path="url(#SVGID_2_)" fill="#929497" d="M24.023,29.779c0-3.585,3.863-6.491,8.628-6.491
		c4.765,0,8.628,2.906,8.628,6.491H24.023z"/>
	<path clip-path="url(#SVGID_2_)" fill="#231F20" d="M31.431,8.979V8.914c0.294-0.315,0.511-0.637,0.653-0.964
		c0.141-0.326,0.212-0.733,0.212-1.224c0-0.229-0.016-0.457-0.049-0.687h2.237V4.832H31.97c-0.077-0.261-0.142-0.519-0.196-0.774
		c-0.055-0.256-0.082-0.521-0.082-0.792c0-0.556,0.142-0.982,0.425-1.282c0.283-0.299,0.68-0.449,1.191-0.449
		c0.316,0,0.588,0.069,0.817,0.205c0.228,0.136,0.446,0.324,0.653,0.563l1.045-1.029c-0.327-0.392-0.705-0.702-1.135-0.93
		C34.258,0.114,33.744,0,33.145,0c-0.479,0-0.92,0.073-1.322,0.221c-0.403,0.146-0.749,0.356-1.037,0.629
		c-0.288,0.271-0.512,0.604-0.669,0.996c-0.158,0.391-0.237,0.832-0.237,1.321c0,0.272,0.035,0.548,0.106,0.824
		c0.071,0.278,0.15,0.559,0.237,0.841h-0.196l-1.094,0.082V6.04h1.633c0.021,0.12,0.038,0.232,0.049,0.335
		c0.01,0.104,0.016,0.216,0.016,0.335c0,0.599-0.158,1.135-0.473,1.608C29.842,8.791,29.422,9.159,28.9,9.42v1.159h6.938v-1.6
		H31.431z"/>
	<path clip-path="url(#SVGID_2_)" fill="#808184" d="M49.511,17.665c0,2.677-2.17,4.847-4.847,4.847
		c-2.677,0-4.847-2.17-4.847-4.847s2.17-4.847,4.847-4.847C47.341,12.818,49.511,14.988,49.511,17.665"/>
	<path clip-path="url(#SVGID_2_)" fill="#808184" d="M36.035,29.779c0-3.585,3.863-6.491,8.628-6.491
		c4.765,0,8.628,2.906,8.628,6.491H36.035z"/>
	<path clip-path="url(#SVGID_2_)" fill="#231F20" d="M43.633,8.229V8.178c0.234-0.251,0.407-0.508,0.52-0.768
		c0.113-0.261,0.169-0.586,0.169-0.976c0-0.183-0.013-0.364-0.039-0.546h1.782V4.926h-2.003c-0.061-0.208-0.113-0.414-0.156-0.618
		c-0.043-0.203-0.065-0.413-0.065-0.63c0-0.443,0.113-0.783,0.338-1.021c0.226-0.239,0.542-0.358,0.95-0.358
		c0.251,0,0.468,0.055,0.65,0.163s0.356,0.259,0.52,0.448l0.833-0.819c-0.26-0.312-0.562-0.559-0.904-0.741
		c-0.343-0.183-0.753-0.273-1.229-0.273c-0.382,0-0.733,0.06-1.054,0.176c-0.321,0.117-0.596,0.284-0.826,0.501
		c-0.23,0.218-0.407,0.481-0.533,0.793C42.46,2.857,42.397,3.208,42.397,3.6c0,0.216,0.028,0.435,0.085,0.655
		c0.056,0.223,0.119,0.445,0.189,0.671h-0.157L41.643,4.99v0.898h1.301c0.017,0.095,0.03,0.184,0.039,0.266
		c0.008,0.083,0.013,0.172,0.013,0.267c0,0.478-0.126,0.904-0.378,1.281c-0.251,0.377-0.585,0.67-1.001,0.878v0.924h5.528V8.229
		H43.633z"/>
</g>
</svg>
