<?xml version="1.0" encoding="utf-8"?>
<!-- Generator: Adobe Illustrator 16.0.0, SVG Export Plug-In . SVG Version: 6.00 Build 0)  -->
<!DOCTYPE svg PUBLIC "-//W3C//DTD SVG 1.1//EN" "http://www.w3.org/Graphics/SVG/1.1/DTD/svg11.dtd">
<svg version="1.1" id="Layer_1" xmlns="http://www.w3.org/2000/svg" xmlns:xlink="http://www.w3.org/1999/xlink" x="0px" y="0px"
	 width="53px" height="19px" viewBox="0 0 53 19" enable-background="new 0 0 53 19" xml:space="preserve">
<g>
	<defs>
		<rect id="SVGID_1_" width="52.441" height="18.585"/>
	</defs>
	<clipPath id="SVGID_2_">
		<use xlink:href="#SVGID_1_"  overflow="visible"/>
	</clipPath>
	<path clip-path="url(#SVGID_2_)" fill="#231F20" d="M4.445,15.774v-0.115c0.516-0.554,0.898-1.118,1.147-1.691
		c0.248-0.573,0.373-1.29,0.373-2.151c0-0.401-0.029-0.803-0.086-1.204h3.929V8.489H5.392C5.257,8.03,5.144,7.576,5.047,7.127
		C4.951,6.679,4.904,6.215,4.904,5.736c0-0.975,0.248-1.725,0.746-2.251c0.497-0.526,1.194-0.789,2.093-0.789
		c0.555,0,1.033,0.12,1.434,0.358c0.402,0.239,0.784,0.569,1.147,0.989l1.836-1.807c-0.574-0.688-1.238-1.233-1.993-1.635
		C9.412,0.201,8.508,0,7.457,0C6.615,0,5.84,0.129,5.133,0.388C4.426,0.646,3.819,1.015,3.313,1.491
		c-0.507,0.479-0.899,1.063-1.176,1.75C1.859,3.93,1.72,4.704,1.72,5.564c0,0.478,0.062,0.961,0.187,1.448
		C2.031,7.5,2.169,7.992,2.323,8.489H1.979L0.058,8.634v1.979h2.868c0.038,0.21,0.067,0.406,0.086,0.588s0.029,0.377,0.029,0.587
		c0,1.053-0.278,1.994-0.832,2.825C1.653,15.444,0.917,16.09,0,16.549v2.036h12.189v-2.811H4.445z"/>
	<path clip-path="url(#SVGID_2_)" fill="#E6E7E8" d="M52.441,18.585c0,0-18.142-4.205-24.095-9.024
		c-5.952-4.818-8.557-9.022-8.557-9.022v18.047"/>
</g>
</svg>
