<?xml version="1.0" encoding="utf-8"?>
<!-- Generator: Adobe Illustrator 16.0.0, SVG Export Plug-In . SVG Version: 6.00 Build 0)  -->
<!DOCTYPE svg PUBLIC "-//W3C//DTD SVG 1.1//EN" "http://www.w3.org/Graphics/SVG/1.1/DTD/svg11.dtd">
<svg version="1.1" id="Layer_1" xmlns="http://www.w3.org/2000/svg" xmlns:xlink="http://www.w3.org/1999/xlink" x="0px" y="0px"
	 width="51px" height="26px" viewBox="0 0 51 26" enable-background="new 0 0 51 26" xml:space="preserve">
<g>
	<defs>
		<rect id="SVGID_1_" width="50.189" height="25.915"/>
	</defs>
	<clipPath id="SVGID_2_">
		<use xlink:href="#SVGID_1_"  overflow="visible"/>
	</clipPath>
	
		<line clip-path="url(#SVGID_2_)" fill="none" stroke="#231F20" stroke-width="2" stroke-linecap="round" stroke-linejoin="round" x1="1" y1="24.915" x2="49.189" y2="24.915"/>
	
		<path clip-path="url(#SVGID_2_)" fill="none" stroke="#231F20" stroke-width="2" stroke-linecap="round" stroke-linejoin="round" d="
		M35.483,16.236c0,0,1.659,0,1.659-2.835V3.834c0,0,0-2.834-2.835-2.834H10.922c0,0-2.835,0-2.835,2.834v9.567
		c0,0,0,2.835,2.835,2.835h15.987c0,0,2,0,3.323,1.5l3.205,3.632c0,0,0.662,0.75,0.615-0.249l-0.228-4.883H35.483z"/>
	<path clip-path="url(#SVGID_2_)" fill="#231F20" d="M28.35,9.858c0.277,0.256,0.597,0.384,0.96,0.384
		c0.362,0,0.677-0.128,0.944-0.384c0.266-0.256,0.4-0.608,0.4-1.057c0-0.469-0.134-0.831-0.4-1.088
		C29.987,7.458,29.672,7.33,29.31,7.33c-0.363,0-0.683,0.128-0.96,0.384c-0.278,0.257-0.416,0.619-0.416,1.088
		C27.934,9.25,28.072,9.603,28.35,9.858 M21.982,9.858c0.277,0.256,0.597,0.384,0.96,0.384c0.362,0,0.677-0.128,0.944-0.384
		c0.266-0.256,0.4-0.608,0.4-1.057c0-0.469-0.134-0.831-0.4-1.088c-0.267-0.256-0.582-0.384-0.944-0.384
		c-0.363,0-0.683,0.128-0.96,0.384c-0.278,0.257-0.416,0.619-0.416,1.088C21.566,9.25,21.704,9.603,21.982,9.858 M15.614,9.858
		c0.277,0.256,0.597,0.384,0.96,0.384c0.363,0,0.677-0.128,0.944-0.384s0.4-0.608,0.4-1.057c0-0.469-0.133-0.831-0.4-1.088
		c-0.267-0.256-0.581-0.384-0.944-0.384c-0.363,0-0.683,0.128-0.96,0.384c-0.277,0.257-0.416,0.619-0.416,1.088
		C15.198,9.25,15.337,9.603,15.614,9.858"/>
</g>
</svg>
