<?xml version="1.0" encoding="utf-8"?>
<!-- Generator: Adobe Illustrator 16.0.0, SVG Export Plug-In . SVG Version: 6.00 Build 0)  -->
<!DOCTYPE svg PUBLIC "-//W3C//DTD SVG 1.1//EN" "http://www.w3.org/Graphics/SVG/1.1/DTD/svg11.dtd">
<svg version="1.1" id="Layer_1" xmlns="http://www.w3.org/2000/svg" xmlns:xlink="http://www.w3.org/1999/xlink" x="0px" y="0px"
	 width="62px" height="17px" viewBox="0 0 62 17" enable-background="new 0 0 62 17" xml:space="preserve">
<g>
	<defs>
		<rect id="SVGID_1_" width="61.919" height="16.961"/>
	</defs>
	<clipPath id="SVGID_2_">
		<use xlink:href="#SVGID_1_"  overflow="visible"/>
	</clipPath>
	<path clip-path="url(#SVGID_2_)" fill="#808184" d="M13.475,4.847c0,2.677-2.17,4.847-4.847,4.847c-2.677,0-4.847-2.17-4.847-4.847
		S5.951,0,8.628,0C11.305,0,13.475,2.17,13.475,4.847"/>
	<path clip-path="url(#SVGID_2_)" fill="#808184" d="M0,16.961c0-3.585,3.863-6.491,8.628-6.491s8.628,2.906,8.628,6.491H0z"/>
	<path clip-path="url(#SVGID_2_)" fill="#A6A8AB" d="M23.804,4.847c0,2.677-2.17,4.847-4.847,4.847c-2.677,0-4.847-2.17-4.847-4.847
		S16.28,0,18.957,0C21.634,0,23.804,2.17,23.804,4.847"/>
	<path clip-path="url(#SVGID_2_)" fill="#A6A8AB" d="M10.329,16.961c0-3.585,3.863-6.491,8.628-6.491
		c4.765,0,8.628,2.906,8.628,6.491H10.329z"/>
	<path clip-path="url(#SVGID_2_)" fill="#58595B" d="M34.292,4.847c0,2.677-2.17,4.847-4.847,4.847c-2.677,0-4.847-2.17-4.847-4.847
		S26.768,0,29.445,0C32.122,0,34.292,2.17,34.292,4.847"/>
	<path clip-path="url(#SVGID_2_)" fill="#58595B" d="M20.817,16.961c0-3.585,3.863-6.491,8.628-6.491
		c4.765,0,8.628,2.906,8.628,6.491H20.817z"/>
	<path clip-path="url(#SVGID_2_)" fill="#D52A2A" d="M58.139,4.847c0,2.677-2.17,4.847-4.847,4.847c-2.677,0-4.847-2.17-4.847-4.847
		S50.615,0,53.292,0C55.969,0,58.139,2.17,58.139,4.847"/>
	<path clip-path="url(#SVGID_2_)" fill="#D52A2A" d="M44.663,16.961c0-3.585,3.863-6.491,8.628-6.491
		c4.765,0,8.628,2.906,8.628,6.491H44.663z"/>
</g>
</svg>
