<?xml version="1.0" encoding="utf-8"?>
<!DOCTYPE svg PUBLIC "-//W3C//DTD SVG 1.1//EN" "http://www.w3.org/Graphics/SVG/1.1/DTD/svg11.dtd">
<svg version="1.1" id="Layer_1" xmlns="http://www.w3.org/2000/svg" xmlns:xlink="http://www.w3.org/1999/xlink" viewBox="0 0 205 50" width="205" height="50">
<g>
	<path fill="#D62A2A" d="M5.67,0C5.67,0,0,0,0,5.669v38.299c0,0,0,5.669,5.67,5.669h193.242c0,0,5.669,0,5.669-5.669V5.669c0,0,0-5.669-5.669-5.669H5.67L5.67,0z"/>
	<path fill="#FFFFFF" d="M21.925,12.41h-5.737v25.402h4.156V26.199c0-0.596-0.019-1.243-0.058-1.942c-0.039-0.7-0.091-1.405-0.155-2.117c-0.065-0.712-0.13-1.411-0.195-2.098c-0.064-0.686-0.123-1.327-0.174-1.922h0.155l2.02,5.787l4.389,10.007h2.097l4.39-10.007l2.058-5.787h0.156c-0.053,0.595-0.117,1.236-0.195,1.922c-0.077,0.687-0.142,1.386-0.194,2.098c-0.052,0.712-0.097,1.417-0.136,2.117c-0.039,0.699-0.058,1.347-0.058,1.942v11.613h4.234V12.41h-5.737l-5.372,15.794h-0.155L21.925,12.41L21.925,12.41z"/>
	<path fill="#FFFFFF" d="M44.739,15.405c-0.803,0-1.463-0.233-1.981-0.699c-0.519-0.466-0.777-1.074-0.777-1.826c0-0.751,0.258-1.366,0.777-1.845c0.518-0.479,1.178-0.718,1.981-0.718c0.802,0,1.462,0.24,1.981,0.718c0.518,0.479,0.777,1.094,0.777,1.845c0,0.751-0.259,1.359-0.777,1.826C46.202,15.172,45.542,15.405,44.739,15.405z M42.486,18.746h4.467v19.071h-4.467V18.746z"/>
	<path fill="#FFFFFF" d="M50.06,28.301c0-1.58,0.259-2.991,0.777-4.234c0.518-1.243,1.217-2.292,2.098-3.146c0.88-0.854,1.896-1.508,3.049-1.961c1.152-0.453,2.362-0.68,3.631-0.68c1.243,0,2.324,0.214,3.244,0.641c0.919,0.427,1.702,0.952,2.35,1.573l-2.136,2.835c-0.518-0.44-1.036-0.783-1.554-1.029c-0.518-0.246-1.075-0.369-1.67-0.369c-1.554,0-2.81,0.576-3.768,1.729c-0.958,1.152-1.438,2.699-1.438,4.642c0,1.917,0.472,3.451,1.418,4.603c0.945,1.152,2.168,1.729,3.67,1.729c0.777,0,1.496-0.162,2.156-0.485s1.249-0.706,1.768-1.146l1.864,2.835c-0.907,0.803-1.903,1.412-2.991,1.826c-1.088,0.414-2.175,0.622-3.263,0.622c-1.295,0-2.505-0.221-3.632-0.661s-2.104-1.087-2.933-1.942c-0.829-0.854-1.476-1.903-1.942-3.146C50.293,31.292,50.06,29.881,50.06,28.301z"/>
	<path fill="#FFFFFF" d="M67.888,18.746h3.69l0.311,3.379h0.155c0.673-1.243,1.489-2.194,2.447-2.854c0.958-0.661,1.942-0.991,2.952-0.991c0.906,0,1.631,0.13,2.175,0.389l-0.777,3.884c-0.337-0.103-0.647-0.181-0.932-0.233c-0.286-0.052-0.635-0.078-1.049-0.078c-0.751,0-1.541,0.292-2.37,0.874c-0.829,0.583-1.541,1.599-2.136,3.049v11.653h-4.467V18.746z"/>
	<path fill="#FFFFFF" d="M79.773,28.301c0-1.58,0.246-2.991,0.738-4.234c0.492-1.243,1.159-2.292,2-3.146c0.841-0.854,1.806-1.508,2.894-1.961c1.087-0.453,2.227-0.68,3.418-0.68c1.191,0,2.337,0.227,3.438,0.68c1.101,0.454,2.065,1.107,2.894,1.961c0.828,0.854,1.495,1.903,2,3.146c0.505,1.243,0.757,2.654,0.757,4.234s-0.252,2.991-0.757,4.233c-0.505,1.243-1.172,2.292-2,3.146c-0.829,0.854-1.793,1.502-2.894,1.942s-2.247,0.661-3.438,0.661c-1.191,0-2.331-0.221-3.418-0.661s-2.053-1.087-2.894-1.942c-0.842-0.854-1.509-1.903-2-3.146C80.02,31.292,79.773,29.881,79.773,28.301z M84.357,28.301c0,1.917,0.395,3.451,1.185,4.603c0.79,1.152,1.884,1.729,3.282,1.729c1.398,0,2.499-0.576,3.302-1.729c0.802-1.152,1.204-2.686,1.204-4.603c0-1.942-0.402-3.489-1.204-4.642c-0.803-1.152-1.903-1.729-3.302-1.729c-1.398,0-2.492,0.576-3.282,1.729S84.357,26.359,84.357,28.301z"/>
	<path fill="#FFFFFF" d="M99.392,28.301c0-1.58,0.259-2.991,0.777-4.234c0.518-1.243,1.217-2.292,2.098-3.146c0.88-0.854,1.896-1.508,3.049-1.961c1.152-0.453,2.362-0.68,3.631-0.68c1.243,0,2.324,0.214,3.244,0.641c0.919,0.427,1.702,0.952,2.35,1.573l-2.136,2.835c-0.518-0.44-1.036-0.783-1.554-1.029c-0.518-0.246-1.075-0.369-1.67-0.369c-1.554,0-2.81,0.576-3.768,1.729c-0.958,1.152-1.438,2.699-1.438,4.642c0,1.917,0.472,3.451,1.418,4.603c0.945,1.152,2.168,1.729,3.67,1.729c0.777,0,1.496-0.162,2.156-0.485s1.249-0.706,1.768-1.146l1.864,2.835c-0.907,0.803-1.903,1.412-2.991,1.826c-1.088,0.414-2.175,0.622-3.263,0.622c-1.295,0-2.505-0.221-3.632-0.661s-2.104-1.087-2.933-1.942c-0.829-0.854-1.476-1.903-1.942-3.146C99.625,31.292,99.392,29.881,99.392,28.301z"/>
	<path fill="#FFFFFF" d="M115.549,28.301c0-1.58,0.246-2.991,0.738-4.234c0.492-1.243,1.159-2.292,2-3.146c0.841-0.854,1.806-1.508,2.894-1.961c1.087-0.453,2.227-0.68,3.418-0.68c1.191,0,2.337,0.227,3.438,0.68c1.101,0.454,2.065,1.107,2.894,1.961c0.828,0.854,1.495,1.903,2,3.146c0.505,1.243,0.758,2.654,0.758,4.234s-0.252,2.991-0.758,4.233c-0.505,1.243-1.172,2.292-2,3.146c-0.829,0.854-1.793,1.502-2.894,1.942s-2.247,0.661-3.438,0.661c-1.191,0-2.331-0.221-3.418-0.661s-2.053-1.087-2.894-1.942c-0.842-0.854-1.509-1.903-2-3.146C115.795,31.292,115.549,29.881,115.549,28.301z M120.133,28.301c0,1.917,0.395,3.451,1.185,4.603c0.79,1.152,1.884,1.729,3.282,1.729c1.398,0,2.499-0.576,3.302-1.729c0.802-1.152,1.204-2.686,1.204-4.603c0-1.942-0.402-3.489-1.204-4.642c-0.803-1.152-1.903-1.729-3.302-1.729c-1.398,0-2.492,0.576-3.282,1.729S120.133,26.359,120.133,28.301z"/>
	<path fill="#FFFFFF" d="M134.84,35.254c0-0.88,0.278-1.605,0.835-2.175c0.557-0.569,1.249-0.854,2.078-0.854c0.828,0,1.515,0.285,2.059,0.854c0.544,0.57,0.815,1.295,0.815,2.175c0,0.88-0.271,1.606-0.815,2.175c-0.544,0.569-1.23,0.854-2.059,0.854c-0.829,0-1.521-0.286-2.078-0.854C135.118,36.86,134.84,36.134,134.84,35.254z"/>
	<path fill="#FFFFFF" d="M144.045,32.768c0.854,0.673,1.703,1.198,2.545,1.573c0.841,0.376,1.754,0.563,2.738,0.563c1.035,0,1.799-0.214,2.291-0.641s0.738-0.977,0.738-1.651c0-0.388-0.116-0.731-0.35-1.029c-0.233-0.297-0.544-0.563-0.932-0.796c-0.389-0.233-0.829-0.447-1.321-0.641s-0.984-0.395-1.476-0.602c-0.622-0.233-1.257-0.505-1.903-0.815c-0.647-0.311-1.224-0.686-1.729-1.126c-0.505-0.44-0.92-0.952-1.243-1.534c-0.324-0.583-0.485-1.275-0.485-2.078c0-1.683,0.621-3.055,1.864-4.117c1.243-1.062,2.938-1.593,5.089-1.593c1.32,0,2.511,0.233,3.573,0.699c1.062,0.466,1.98,0.997,2.758,1.592l-2.059,2.719c-0.674-0.492-1.354-0.887-2.039-1.185c-0.687-0.297-1.405-0.447-2.156-0.447c-0.958,0-1.664,0.201-2.117,0.602c-0.453,0.402-0.68,0.9-0.68,1.495c0,0.389,0.11,0.719,0.33,0.991s0.512,0.512,0.874,0.719c0.362,0.208,0.783,0.401,1.263,0.583c0.479,0.181,0.978,0.363,1.495,0.543c0.647,0.233,1.295,0.499,1.942,0.796c0.647,0.298,1.236,0.667,1.768,1.107c0.53,0.441,0.957,0.978,1.281,1.612c0.324,0.635,0.485,1.392,0.485,2.272c0,0.829-0.161,1.599-0.485,2.311c-0.324,0.713-0.796,1.334-1.417,1.865c-0.622,0.531-1.398,0.952-2.331,1.262c-0.932,0.311-1.994,0.466-3.185,0.466c-1.321,0-2.622-0.252-3.904-0.758c-1.281-0.505-2.389-1.132-3.32-1.884L144.045,32.768z"/>
	<path fill="#FFFFFF" d="M159.846,18.746h3.689l0.311,2.602h0.155c0.803-0.854,1.677-1.579,2.622-2.175s2.014-0.894,3.205-0.894c1.397,0,2.518,0.298,3.359,0.894c0.841,0.596,1.482,1.437,1.923,2.524c0.906-0.983,1.851-1.799,2.835-2.447c0.984-0.647,2.084-0.971,3.302-0.971c2.02,0,3.509,0.654,4.467,1.961c0.958,1.308,1.438,3.179,1.438,5.613v11.963h-4.506V26.437c0-1.579-0.239-2.693-0.719-3.34c-0.479-0.647-1.211-0.971-2.194-0.971c-1.191,0-2.524,0.791-4.001,2.37v13.323h-4.467V26.437c0-1.579-0.239-2.693-0.719-3.34c-0.479-0.647-1.224-0.971-2.233-0.971c-1.191,0-2.524,0.791-4,2.37v13.323h-4.467V18.746z"/>
</g>
</svg>
